<mxfile host="app.diagrams.net" modified="2023-11-01T06:25:48.800Z" agent="Mozilla/5.0 (Macintosh; Intel Mac OS X 10_15_7) AppleWebKit/537.36 (KHTML, like Gecko) Chrome/118.0.0.0 Safari/537.36" etag="sYWfFL1fr6myRU1HkvpL" version="22.0.8" type="device" pages="7">
  <diagram id="x-8XUFO4KVnI9SPyYXdu" name="Page-1">
    <mxGraphModel dx="199" dy="569" grid="1" gridSize="10" guides="1" tooltips="1" connect="1" arrows="1" fold="1" page="1" pageScale="1" pageWidth="827" pageHeight="1169" math="0" shadow="0">
      <root>
        <mxCell id="0" />
        <mxCell id="1" parent="0" />
        <mxCell id="h6iO9dej6Ll2tVSFS8EP-6" style="rounded=0;orthogonalLoop=1;jettySize=auto;html=1;entryX=0;entryY=0.5;entryDx=0;entryDy=0;" parent="1" target="9P7ayATm7iGw8O_V9dax-6" edge="1">
          <mxGeometry relative="1" as="geometry">
            <mxPoint x="940" y="210" as="sourcePoint" />
          </mxGeometry>
        </mxCell>
        <mxCell id="h6iO9dej6Ll2tVSFS8EP-7" value="3. PUT /api/&amp;lt;db&amp;gt;/&amp;lt;table&amp;gt;/_stream_load" style="edgeLabel;html=1;align=center;verticalAlign=middle;resizable=0;points=[];labelBackgroundColor=none;fontFamily=Lucida Console;fontSize=10;fontStyle=0;rotation=11;" parent="h6iO9dej6Ll2tVSFS8EP-6" vertex="1" connectable="0">
          <mxGeometry x="-0.0668" y="-1" relative="1" as="geometry">
            <mxPoint x="-23" y="-14" as="offset" />
          </mxGeometry>
        </mxCell>
        <mxCell id="9P7ayATm7iGw8O_V9dax-1" value="User" style="shape=umlActor;verticalLabelPosition=bottom;verticalAlign=top;html=1;outlineConnect=0;fontFamily=Comic Sans MS;fillColor=#fff2cc;strokeColor=#d6b656;" parent="1" vertex="1">
          <mxGeometry x="900" y="190" width="30" height="60" as="geometry" />
        </mxCell>
        <mxCell id="9P7ayATm7iGw8O_V9dax-2" value="" style="rounded=0;whiteSpace=wrap;html=1;fillColor=#d5e8d4;strokeColor=#82b366;" parent="1" vertex="1">
          <mxGeometry x="1199" y="15" width="120" height="60" as="geometry" />
        </mxCell>
        <mxCell id="9P7ayATm7iGw8O_V9dax-3" value="" style="rounded=0;whiteSpace=wrap;html=1;fillColor=#d5e8d4;strokeColor=#82b366;" parent="1" vertex="1">
          <mxGeometry x="1209" y="25" width="120" height="60" as="geometry" />
        </mxCell>
        <mxCell id="9P7ayATm7iGw8O_V9dax-4" value="FE" style="rounded=0;whiteSpace=wrap;html=1;fontFamily=Comic Sans MS;fillColor=#d5e8d4;strokeColor=#82b366;" parent="1" vertex="1">
          <mxGeometry x="1219" y="35" width="120" height="60" as="geometry" />
        </mxCell>
        <mxCell id="h6iO9dej6Ll2tVSFS8EP-8" style="rounded=0;orthogonalLoop=1;jettySize=auto;html=1;exitX=0;exitY=0.75;exitDx=0;exitDy=0;strokeColor=#0000FF;" parent="1" source="9P7ayATm7iGw8O_V9dax-6" edge="1">
          <mxGeometry relative="1" as="geometry">
            <mxPoint x="940" y="220" as="targetPoint" />
          </mxGeometry>
        </mxCell>
        <mxCell id="h6iO9dej6Ll2tVSFS8EP-9" value="4. HTTP 200 OK" style="edgeLabel;html=1;align=center;verticalAlign=middle;resizable=0;points=[];labelBackgroundColor=none;fontFamily=Lucida Console;fontSize=10;fontStyle=0;rotation=11;" parent="h6iO9dej6Ll2tVSFS8EP-8" vertex="1" connectable="0">
          <mxGeometry x="-0.2739" y="-5" relative="1" as="geometry">
            <mxPoint x="54" y="25" as="offset" />
          </mxGeometry>
        </mxCell>
        <mxCell id="9P7ayATm7iGw8O_V9dax-6" value="BE-1" style="rounded=0;whiteSpace=wrap;html=1;fontFamily=Comic Sans MS;fillColor=#dae8fc;strokeColor=#6c8ebf;" parent="1" vertex="1">
          <mxGeometry x="1310" y="260" width="70" height="40" as="geometry" />
        </mxCell>
        <mxCell id="9P7ayATm7iGw8O_V9dax-7" value="BE-2" style="rounded=0;whiteSpace=wrap;html=1;fontFamily=Comic Sans MS;fillColor=#dae8fc;strokeColor=#6c8ebf;" parent="1" vertex="1">
          <mxGeometry x="1310" y="320" width="70" height="40" as="geometry" />
        </mxCell>
        <mxCell id="h6iO9dej6Ll2tVSFS8EP-1" style="rounded=0;orthogonalLoop=1;jettySize=auto;html=1;entryX=0;entryY=0.5;entryDx=0;entryDy=0;" parent="1" target="9P7ayATm7iGw8O_V9dax-4" edge="1">
          <mxGeometry relative="1" as="geometry">
            <mxPoint x="940" y="190" as="sourcePoint" />
          </mxGeometry>
        </mxCell>
        <mxCell id="h6iO9dej6Ll2tVSFS8EP-2" value="1. PUT /api/&amp;lt;db&amp;gt;/&amp;lt;table&amp;gt;/_stream_load" style="edgeLabel;html=1;align=center;verticalAlign=middle;resizable=0;points=[];labelBackgroundColor=none;fontFamily=Lucida Console;fontSize=10;fontStyle=0;rotation=335;" parent="h6iO9dej6Ll2tVSFS8EP-1" vertex="1" connectable="0">
          <mxGeometry x="-0.0472" relative="1" as="geometry">
            <mxPoint x="-25" y="-2" as="offset" />
          </mxGeometry>
        </mxCell>
        <mxCell id="h6iO9dej6Ll2tVSFS8EP-4" style="rounded=0;orthogonalLoop=1;jettySize=auto;html=1;exitX=0;exitY=0.75;exitDx=0;exitDy=0;strokeColor=#0000FF;" parent="1" source="9P7ayATm7iGw8O_V9dax-4" edge="1">
          <mxGeometry relative="1" as="geometry">
            <mxPoint x="950" y="200" as="targetPoint" />
          </mxGeometry>
        </mxCell>
        <mxCell id="h6iO9dej6Ll2tVSFS8EP-10" value="2. HTTP 307&lt;code style=&quot;border-color: var(--border-color); text-align: left; box-sizing: border-box; border-radius: var(--elem-radius); padding: 0.125rem 0.25rem; width: fit-content; font-size: 10px;&quot;&gt;Temporary Redirect&lt;/code&gt;&lt;br style=&quot;border-color: var(--border-color); text-align: left; font-size: 10px;&quot;&gt;&lt;span style=&quot;text-align: left; font-size: 10px;&quot;&gt;Location: http://BE-x:8040/api/&amp;lt;db&amp;gt;/&amp;lt;table&amp;gt;/_stream_load&lt;/span&gt;" style="edgeLabel;html=1;align=center;verticalAlign=middle;resizable=0;points=[];fontSize=10;fontFamily=Lucida Console;rotation=335;labelBackgroundColor=none;fontStyle=0" parent="h6iO9dej6Ll2tVSFS8EP-4" vertex="1" connectable="0">
          <mxGeometry x="-0.0734" relative="1" as="geometry">
            <mxPoint x="24" y="8" as="offset" />
          </mxGeometry>
        </mxCell>
      </root>
    </mxGraphModel>
  </diagram>
  <diagram id="SNlr5mZYPRkQkHPOVEBI" name="Page-2">
    <mxGraphModel dx="199" dy="649" grid="1" gridSize="10" guides="1" tooltips="1" connect="1" arrows="1" fold="1" page="1" pageScale="1" pageWidth="827" pageHeight="1169" math="0" shadow="0">
      <root>
        <mxCell id="0" />
        <mxCell id="1" parent="0" />
        <mxCell id="7bP2aym7wYCzR2TTsN6d-26" value="Private Network" style="rounded=0;whiteSpace=wrap;html=1;labelBackgroundColor=none;fontFamily=Verdana;fontSize=10;fillColor=#eeeeee;dashed=1;strokeColor=#36393d;labelPosition=center;verticalLabelPosition=bottom;align=center;verticalAlign=top;fontStyle=1" parent="1" vertex="1">
          <mxGeometry x="1230" y="32" width="270" height="390" as="geometry" />
        </mxCell>
        <mxCell id="7bP2aym7wYCzR2TTsN6d-1" style="rounded=0;orthogonalLoop=1;jettySize=auto;html=1;entryX=0;entryY=0.5;entryDx=0;entryDy=0;" parent="1" target="7bP2aym7wYCzR2TTsN6d-9" edge="1">
          <mxGeometry relative="1" as="geometry">
            <mxPoint x="940" y="252" as="sourcePoint" />
          </mxGeometry>
        </mxCell>
        <mxCell id="7bP2aym7wYCzR2TTsN6d-2" value="3. PUT /api/&amp;lt;db&amp;gt;/&amp;lt;table&amp;gt;/_stream_load" style="edgeLabel;html=1;align=center;verticalAlign=middle;resizable=0;points=[];labelBackgroundColor=none;fontFamily=Lucida Console;fontSize=10;fontStyle=0;rotation=11;" parent="7bP2aym7wYCzR2TTsN6d-1" vertex="1" connectable="0">
          <mxGeometry x="-0.0668" y="-1" relative="1" as="geometry">
            <mxPoint x="-23" y="-14" as="offset" />
          </mxGeometry>
        </mxCell>
        <mxCell id="7bP2aym7wYCzR2TTsN6d-3" value="User" style="shape=umlActor;verticalLabelPosition=bottom;verticalAlign=top;html=1;outlineConnect=0;fontFamily=Comic Sans MS;fillColor=#fff2cc;strokeColor=#d6b656;" parent="1" vertex="1">
          <mxGeometry x="900" y="232" width="30" height="60" as="geometry" />
        </mxCell>
        <mxCell id="7bP2aym7wYCzR2TTsN6d-20" style="edgeStyle=none;rounded=0;orthogonalLoop=1;jettySize=auto;html=1;exitX=1;exitY=0.5;exitDx=0;exitDy=0;entryX=0;entryY=0.5;entryDx=0;entryDy=0;strokeColor=#000000;fontFamily=Lucida Console;fontSize=10;" parent="1" source="7bP2aym7wYCzR2TTsN6d-6" target="7bP2aym7wYCzR2TTsN6d-17" edge="1">
          <mxGeometry relative="1" as="geometry" />
        </mxCell>
        <mxCell id="7bP2aym7wYCzR2TTsN6d-21" style="edgeStyle=none;rounded=0;orthogonalLoop=1;jettySize=auto;html=1;exitX=1;exitY=0.5;exitDx=0;exitDy=0;strokeColor=#000000;fontFamily=Lucida Console;fontSize=10;" parent="1" source="7bP2aym7wYCzR2TTsN6d-6" target="7bP2aym7wYCzR2TTsN6d-18" edge="1">
          <mxGeometry relative="1" as="geometry" />
        </mxCell>
        <mxCell id="7bP2aym7wYCzR2TTsN6d-22" style="edgeStyle=none;rounded=0;orthogonalLoop=1;jettySize=auto;html=1;exitX=1;exitY=0.5;exitDx=0;exitDy=0;entryX=0;entryY=0.5;entryDx=0;entryDy=0;strokeColor=#000000;fontFamily=Lucida Console;fontSize=10;" parent="1" source="7bP2aym7wYCzR2TTsN6d-6" target="7bP2aym7wYCzR2TTsN6d-19" edge="1">
          <mxGeometry relative="1" as="geometry" />
        </mxCell>
        <mxCell id="7bP2aym7wYCzR2TTsN6d-6" value="FE Service LB" style="rounded=0;whiteSpace=wrap;html=1;fontFamily=Comic Sans MS;fillColor=#fff2cc;strokeColor=#d6b656;" parent="1" vertex="1">
          <mxGeometry x="1219" y="77" width="120" height="60" as="geometry" />
        </mxCell>
        <mxCell id="7bP2aym7wYCzR2TTsN6d-9" value="BE-1 POD" style="rounded=0;whiteSpace=wrap;html=1;fontFamily=Comic Sans MS;fillColor=#dae8fc;strokeColor=#6c8ebf;" parent="1" vertex="1">
          <mxGeometry x="1310" y="302" width="70" height="40" as="geometry" />
        </mxCell>
        <mxCell id="7bP2aym7wYCzR2TTsN6d-10" value="BE-2 POD" style="rounded=0;whiteSpace=wrap;html=1;fontFamily=Comic Sans MS;fillColor=#dae8fc;strokeColor=#6c8ebf;" parent="1" vertex="1">
          <mxGeometry x="1310" y="362" width="70" height="40" as="geometry" />
        </mxCell>
        <mxCell id="7bP2aym7wYCzR2TTsN6d-11" style="rounded=0;orthogonalLoop=1;jettySize=auto;html=1;entryX=0;entryY=0.5;entryDx=0;entryDy=0;" parent="1" target="7bP2aym7wYCzR2TTsN6d-6" edge="1">
          <mxGeometry relative="1" as="geometry">
            <mxPoint x="940" y="232" as="sourcePoint" />
          </mxGeometry>
        </mxCell>
        <mxCell id="7bP2aym7wYCzR2TTsN6d-12" value="1. PUT /api/&amp;lt;db&amp;gt;/&amp;lt;table&amp;gt;/_stream_load" style="edgeLabel;html=1;align=center;verticalAlign=middle;resizable=0;points=[];labelBackgroundColor=none;fontFamily=Lucida Console;fontSize=10;fontStyle=0;rotation=335;" parent="7bP2aym7wYCzR2TTsN6d-11" vertex="1" connectable="0">
          <mxGeometry x="-0.0472" relative="1" as="geometry">
            <mxPoint x="-25" y="-2" as="offset" />
          </mxGeometry>
        </mxCell>
        <mxCell id="7bP2aym7wYCzR2TTsN6d-13" style="rounded=0;orthogonalLoop=1;jettySize=auto;html=1;exitX=0;exitY=0.75;exitDx=0;exitDy=0;strokeColor=#0000FF;" parent="1" source="7bP2aym7wYCzR2TTsN6d-6" edge="1">
          <mxGeometry relative="1" as="geometry">
            <mxPoint x="950" y="242" as="targetPoint" />
          </mxGeometry>
        </mxCell>
        <mxCell id="7bP2aym7wYCzR2TTsN6d-14" value="2. HTTP 307&lt;code style=&quot;border-color: var(--border-color); text-align: left; box-sizing: border-box; border-radius: var(--elem-radius); padding: 0.125rem 0.25rem; width: fit-content; font-size: 10px;&quot;&gt;Temporary Redirect&lt;/code&gt;&lt;br style=&quot;border-color: var(--border-color); text-align: left; font-size: 10px;&quot;&gt;&lt;span style=&quot;text-align: left; font-size: 10px;&quot;&gt;Location: &lt;font color=&quot;#ff0000&quot;&gt;http://BE-x:8040/api/&amp;lt;db&amp;gt;/&amp;lt;table&amp;gt;/_stream_load&lt;/font&gt;&lt;/span&gt;" style="edgeLabel;html=1;align=center;verticalAlign=middle;resizable=0;points=[];fontSize=10;fontFamily=Lucida Console;rotation=335;labelBackgroundColor=none;fontStyle=0" parent="7bP2aym7wYCzR2TTsN6d-13" vertex="1" connectable="0">
          <mxGeometry x="-0.0734" relative="1" as="geometry">
            <mxPoint x="24" y="8" as="offset" />
          </mxGeometry>
        </mxCell>
        <mxCell id="7bP2aym7wYCzR2TTsN6d-17" value="FE POD" style="rounded=0;whiteSpace=wrap;html=1;fontFamily=Comic Sans MS;fillColor=#d5e8d4;strokeColor=#82b366;opacity=80;" parent="1" vertex="1">
          <mxGeometry x="1410" y="42" width="70" height="40" as="geometry" />
        </mxCell>
        <mxCell id="7bP2aym7wYCzR2TTsN6d-18" value="FE POD" style="rounded=0;whiteSpace=wrap;html=1;fontFamily=Comic Sans MS;fillColor=#d5e8d4;strokeColor=#82b366;opacity=80;" parent="1" vertex="1">
          <mxGeometry x="1410" y="92" width="70" height="40" as="geometry" />
        </mxCell>
        <mxCell id="7bP2aym7wYCzR2TTsN6d-19" value="FE POD" style="rounded=0;whiteSpace=wrap;html=1;fontFamily=Comic Sans MS;fillColor=#d5e8d4;strokeColor=#82b366;opacity=80;" parent="1" vertex="1">
          <mxGeometry x="1410" y="142" width="70" height="40" as="geometry" />
        </mxCell>
        <mxCell id="7bP2aym7wYCzR2TTsN6d-23" value="" style="verticalLabelPosition=bottom;verticalAlign=top;html=1;shape=mxgraph.basic.no_symbol;labelBackgroundColor=none;fontFamily=Lucida Console;fontSize=10;opacity=80;fillColor=#FF0000;strokeColor=none;" parent="1" vertex="1">
          <mxGeometry x="1210" y="282" width="40" height="40" as="geometry" />
        </mxCell>
      </root>
    </mxGraphModel>
  </diagram>
  <diagram id="usL6LKdsgT7rTrIcIbps" name="Page-3">
    <mxGraphModel dx="199" dy="649" grid="1" gridSize="10" guides="1" tooltips="1" connect="1" arrows="1" fold="1" page="1" pageScale="1" pageWidth="827" pageHeight="1169" math="0" shadow="0">
      <root>
        <mxCell id="0" />
        <mxCell id="1" parent="0" />
        <mxCell id="xTGqJYmua0WMi3BBw8ay-1" value="Private Network" style="rounded=0;whiteSpace=wrap;html=1;labelBackgroundColor=none;fontFamily=Verdana;fontSize=10;fillColor=#eeeeee;dashed=1;strokeColor=#36393d;labelPosition=center;verticalLabelPosition=bottom;align=center;verticalAlign=top;fontStyle=1" parent="1" vertex="1">
          <mxGeometry x="1230" y="32" width="270" height="390" as="geometry" />
        </mxCell>
        <mxCell id="xTGqJYmua0WMi3BBw8ay-4" value="User" style="shape=umlActor;verticalLabelPosition=bottom;verticalAlign=top;html=1;outlineConnect=0;fontFamily=Comic Sans MS;fillColor=#fff2cc;strokeColor=#d6b656;" parent="1" vertex="1">
          <mxGeometry x="922" y="265" width="30" height="60" as="geometry" />
        </mxCell>
        <mxCell id="xTGqJYmua0WMi3BBw8ay-5" style="edgeStyle=none;rounded=0;orthogonalLoop=1;jettySize=auto;html=1;exitX=1;exitY=0.5;exitDx=0;exitDy=0;entryX=0;entryY=0.5;entryDx=0;entryDy=0;strokeColor=#000000;fontFamily=Lucida Console;fontSize=10;" parent="1" source="xTGqJYmua0WMi3BBw8ay-8" target="xTGqJYmua0WMi3BBw8ay-15" edge="1">
          <mxGeometry relative="1" as="geometry" />
        </mxCell>
        <mxCell id="xTGqJYmua0WMi3BBw8ay-6" style="edgeStyle=none;rounded=0;orthogonalLoop=1;jettySize=auto;html=1;exitX=1;exitY=0.5;exitDx=0;exitDy=0;strokeColor=#000000;fontFamily=Lucida Console;fontSize=10;" parent="1" source="xTGqJYmua0WMi3BBw8ay-8" target="xTGqJYmua0WMi3BBw8ay-16" edge="1">
          <mxGeometry relative="1" as="geometry" />
        </mxCell>
        <mxCell id="xTGqJYmua0WMi3BBw8ay-7" style="edgeStyle=none;rounded=0;orthogonalLoop=1;jettySize=auto;html=1;exitX=1;exitY=0.5;exitDx=0;exitDy=0;entryX=0;entryY=0.5;entryDx=0;entryDy=0;strokeColor=#000000;fontFamily=Lucida Console;fontSize=10;" parent="1" source="xTGqJYmua0WMi3BBw8ay-8" target="xTGqJYmua0WMi3BBw8ay-17" edge="1">
          <mxGeometry relative="1" as="geometry" />
        </mxCell>
        <mxCell id="xTGqJYmua0WMi3BBw8ay-8" value="FE Service LB" style="rounded=0;whiteSpace=wrap;html=1;fontFamily=Comic Sans MS;fillColor=#fff2cc;strokeColor=#d6b656;" parent="1" vertex="1">
          <mxGeometry x="1219" y="77" width="120" height="60" as="geometry" />
        </mxCell>
        <mxCell id="xTGqJYmua0WMi3BBw8ay-9" value="BE-1 POD" style="rounded=0;whiteSpace=wrap;html=1;fontFamily=Comic Sans MS;fillColor=#dae8fc;strokeColor=#6c8ebf;" parent="1" vertex="1">
          <mxGeometry x="1410" y="242" width="70" height="40" as="geometry" />
        </mxCell>
        <mxCell id="xTGqJYmua0WMi3BBw8ay-10" value="BE-2 POD" style="rounded=0;whiteSpace=wrap;html=1;fontFamily=Comic Sans MS;fillColor=#dae8fc;strokeColor=#6c8ebf;" parent="1" vertex="1">
          <mxGeometry x="1410" y="310" width="70" height="40" as="geometry" />
        </mxCell>
        <mxCell id="xTGqJYmua0WMi3BBw8ay-11" style="rounded=0;orthogonalLoop=1;jettySize=auto;html=1;entryX=0;entryY=0.25;entryDx=0;entryDy=0;" parent="1" edge="1">
          <mxGeometry relative="1" as="geometry">
            <mxPoint x="960" y="288" as="sourcePoint" />
            <mxPoint x="1219" y="288" as="targetPoint" />
          </mxGeometry>
        </mxCell>
        <mxCell id="xTGqJYmua0WMi3BBw8ay-12" value="1. PUT /api/&amp;lt;db&amp;gt;/&amp;lt;table&amp;gt;/_stream_load" style="edgeLabel;html=1;align=center;verticalAlign=middle;resizable=0;points=[];labelBackgroundColor=none;fontFamily=Lucida Console;fontSize=10;fontStyle=0;rotation=0;" parent="xTGqJYmua0WMi3BBw8ay-11" vertex="1" connectable="0">
          <mxGeometry x="-0.0472" relative="1" as="geometry">
            <mxPoint x="-22" y="-15" as="offset" />
          </mxGeometry>
        </mxCell>
        <mxCell id="xTGqJYmua0WMi3BBw8ay-13" style="rounded=0;orthogonalLoop=1;jettySize=auto;html=1;exitX=0.003;exitY=0.667;exitDx=0;exitDy=0;strokeColor=#0000FF;exitPerimeter=0;" parent="1" source="xTGqJYmua0WMi3BBw8ay-19" edge="1">
          <mxGeometry relative="1" as="geometry">
            <mxPoint x="960" y="310" as="targetPoint" />
            <mxPoint x="1219" y="308" as="sourcePoint" />
          </mxGeometry>
        </mxCell>
        <mxCell id="xTGqJYmua0WMi3BBw8ay-14" value="2. HTTP OK" style="edgeLabel;html=1;align=center;verticalAlign=middle;resizable=0;points=[];fontSize=10;fontFamily=Lucida Console;rotation=0;labelBackgroundColor=none;fontStyle=0" parent="xTGqJYmua0WMi3BBw8ay-13" vertex="1" connectable="0">
          <mxGeometry x="-0.0734" relative="1" as="geometry">
            <mxPoint x="-9" y="8" as="offset" />
          </mxGeometry>
        </mxCell>
        <mxCell id="xTGqJYmua0WMi3BBw8ay-15" value="FE POD" style="rounded=0;whiteSpace=wrap;html=1;fontFamily=Comic Sans MS;fillColor=#d5e8d4;strokeColor=#82b366;opacity=80;" parent="1" vertex="1">
          <mxGeometry x="1410" y="42" width="70" height="40" as="geometry" />
        </mxCell>
        <mxCell id="xTGqJYmua0WMi3BBw8ay-16" value="FE POD" style="rounded=0;whiteSpace=wrap;html=1;fontFamily=Comic Sans MS;fillColor=#d5e8d4;strokeColor=#82b366;opacity=80;" parent="1" vertex="1">
          <mxGeometry x="1410" y="92" width="70" height="40" as="geometry" />
        </mxCell>
        <mxCell id="xTGqJYmua0WMi3BBw8ay-17" value="FE POD" style="rounded=0;whiteSpace=wrap;html=1;fontFamily=Comic Sans MS;fillColor=#d5e8d4;strokeColor=#82b366;opacity=80;" parent="1" vertex="1">
          <mxGeometry x="1410" y="142" width="70" height="40" as="geometry" />
        </mxCell>
        <mxCell id="xTGqJYmua0WMi3BBw8ay-20" style="edgeStyle=none;rounded=0;orthogonalLoop=1;jettySize=auto;html=1;exitX=1;exitY=0.5;exitDx=0;exitDy=0;entryX=0;entryY=0.5;entryDx=0;entryDy=0;strokeColor=#000000;fontFamily=Verdana;fontSize=10;fontColor=#FF0000;" parent="1" source="xTGqJYmua0WMi3BBw8ay-19" target="xTGqJYmua0WMi3BBw8ay-9" edge="1">
          <mxGeometry relative="1" as="geometry" />
        </mxCell>
        <mxCell id="xTGqJYmua0WMi3BBw8ay-21" style="edgeStyle=none;rounded=0;orthogonalLoop=1;jettySize=auto;html=1;exitX=1;exitY=0.5;exitDx=0;exitDy=0;entryX=0;entryY=0.5;entryDx=0;entryDy=0;strokeColor=#000000;fontFamily=Verdana;fontSize=10;fontColor=#FF0000;" parent="1" source="xTGqJYmua0WMi3BBw8ay-19" target="xTGqJYmua0WMi3BBw8ay-10" edge="1">
          <mxGeometry relative="1" as="geometry" />
        </mxCell>
        <mxCell id="xTGqJYmua0WMi3BBw8ay-19" value="BE Service LB" style="rounded=0;whiteSpace=wrap;html=1;fontFamily=Comic Sans MS;fillColor=#fff2cc;strokeColor=#d6b656;fontStyle=1" parent="1" vertex="1">
          <mxGeometry x="1219" y="270" width="120" height="60" as="geometry" />
        </mxCell>
      </root>
    </mxGraphModel>
  </diagram>
  <diagram id="m3ujRV2cdkXI_hfu4w7O" name="Page-4">
    <mxGraphModel dx="199" dy="1738" grid="1" gridSize="10" guides="1" tooltips="1" connect="1" arrows="1" fold="1" page="1" pageScale="1" pageWidth="827" pageHeight="1169" math="0" shadow="0">
      <root>
        <mxCell id="0" />
        <mxCell id="1" parent="0" />
        <mxCell id="RmEavR5O3qaWNadBns78-1" value="Kubernetes" style="rounded=0;whiteSpace=wrap;html=1;labelBackgroundColor=none;fontFamily=Verdana;fontSize=10;fillColor=#eeeeee;dashed=1;strokeColor=#36393d;labelPosition=center;verticalLabelPosition=bottom;align=center;verticalAlign=top;fontStyle=1" parent="1" vertex="1">
          <mxGeometry x="1230" y="-20" width="540" height="480" as="geometry" />
        </mxCell>
        <mxCell id="RmEavR5O3qaWNadBns78-2" value="User" style="shape=umlActor;verticalLabelPosition=bottom;verticalAlign=top;html=1;outlineConnect=0;fontFamily=Comic Sans MS;fillColor=#fff2cc;strokeColor=#d6b656;" parent="1" vertex="1">
          <mxGeometry x="870" y="265" width="30" height="95" as="geometry" />
        </mxCell>
        <mxCell id="RmEavR5O3qaWNadBns78-3" style="edgeStyle=none;rounded=0;orthogonalLoop=1;jettySize=auto;html=1;exitX=1;exitY=0.5;exitDx=0;exitDy=0;entryX=0;entryY=0.5;entryDx=0;entryDy=0;strokeColor=#000000;fontFamily=Lucida Console;fontSize=10;" parent="1" source="RmEavR5O3qaWNadBns78-6" target="RmEavR5O3qaWNadBns78-13" edge="1">
          <mxGeometry relative="1" as="geometry" />
        </mxCell>
        <mxCell id="RmEavR5O3qaWNadBns78-4" style="edgeStyle=none;rounded=0;orthogonalLoop=1;jettySize=auto;html=1;exitX=1;exitY=0.5;exitDx=0;exitDy=0;strokeColor=#000000;fontFamily=Lucida Console;fontSize=10;" parent="1" source="RmEavR5O3qaWNadBns78-6" target="RmEavR5O3qaWNadBns78-14" edge="1">
          <mxGeometry relative="1" as="geometry" />
        </mxCell>
        <mxCell id="RmEavR5O3qaWNadBns78-5" style="edgeStyle=none;rounded=0;orthogonalLoop=1;jettySize=auto;html=1;exitX=1;exitY=0.5;exitDx=0;exitDy=0;entryX=0;entryY=0.5;entryDx=0;entryDy=0;strokeColor=#000000;fontFamily=Lucida Console;fontSize=10;" parent="1" source="RmEavR5O3qaWNadBns78-6" target="RmEavR5O3qaWNadBns78-15" edge="1">
          <mxGeometry relative="1" as="geometry" />
        </mxCell>
        <mxCell id="RmEavR5O3qaWNadBns78-6" value="FE Service LB" style="rounded=0;whiteSpace=wrap;html=1;fontFamily=Comic Sans MS;fillColor=#fff2cc;strokeColor=#d6b656;" parent="1" vertex="1">
          <mxGeometry x="1218" y="35" width="120" height="60" as="geometry" />
        </mxCell>
        <mxCell id="RmEavR5O3qaWNadBns78-7" value="BE-1 POD" style="rounded=0;whiteSpace=wrap;html=1;fontFamily=Comic Sans MS;fillColor=#dae8fc;strokeColor=#6c8ebf;" parent="1" vertex="1">
          <mxGeometry x="1680" y="251" width="70" height="40" as="geometry" />
        </mxCell>
        <mxCell id="RmEavR5O3qaWNadBns78-8" value="BE-2 POD" style="rounded=0;whiteSpace=wrap;html=1;fontFamily=Comic Sans MS;fillColor=#dae8fc;strokeColor=#6c8ebf;" parent="1" vertex="1">
          <mxGeometry x="1670" y="330" width="70" height="40" as="geometry" />
        </mxCell>
        <mxCell id="RmEavR5O3qaWNadBns78-9" style="rounded=0;orthogonalLoop=1;jettySize=auto;html=1;entryX=0;entryY=0.25;entryDx=0;entryDy=0;" parent="1" edge="1">
          <mxGeometry relative="1" as="geometry">
            <mxPoint x="910" y="270" as="sourcePoint" />
            <mxPoint x="1219" y="288" as="targetPoint" />
          </mxGeometry>
        </mxCell>
        <mxCell id="RmEavR5O3qaWNadBns78-10" value="1. PUT /api/&amp;lt;db&amp;gt;/&amp;lt;table&amp;gt;/_stream_load" style="edgeLabel;html=1;align=center;verticalAlign=middle;resizable=0;points=[];labelBackgroundColor=none;fontFamily=Helvetica;fontSize=10;fontStyle=0;rotation=4;" parent="RmEavR5O3qaWNadBns78-9" vertex="1" connectable="0">
          <mxGeometry x="-0.0472" relative="1" as="geometry">
            <mxPoint x="-22" y="-15" as="offset" />
          </mxGeometry>
        </mxCell>
        <mxCell id="RmEavR5O3qaWNadBns78-11" style="rounded=0;orthogonalLoop=1;jettySize=auto;html=1;exitX=0.003;exitY=0.667;exitDx=0;exitDy=0;strokeColor=#0000FF;exitPerimeter=0;" parent="1" edge="1">
          <mxGeometry relative="1" as="geometry">
            <mxPoint x="910" y="280" as="targetPoint" />
            <mxPoint x="1219" y="300.02" as="sourcePoint" />
          </mxGeometry>
        </mxCell>
        <mxCell id="RmEavR5O3qaWNadBns78-12" value="4. HTTP 307&lt;code style=&quot;border-color: var(--border-color); text-align: left; box-sizing: border-box; border-radius: var(--elem-radius); padding: 0.125rem 0.25rem; width: fit-content; font-size: 10px;&quot;&gt;Temporary Redirect&lt;/code&gt;&lt;br style=&quot;border-color: var(--border-color); text-align: left; font-size: 10px;&quot;&gt;&lt;span style=&quot;border-color: var(--border-color); font-size: 10px;&quot;&gt;Location: &lt;font color=&quot;#ff0000&quot; style=&quot;font-size: 10px;&quot;&gt;http://nginx-lb/be/BE-x:8040/api/&amp;lt;db&amp;gt;/&amp;lt;table&amp;gt;/_stream_load&lt;/font&gt;&lt;/span&gt;" style="edgeLabel;html=1;align=center;verticalAlign=middle;resizable=0;points=[];fontSize=10;fontFamily=Helvetica;rotation=4;labelBackgroundColor=none;fontStyle=0" parent="RmEavR5O3qaWNadBns78-11" vertex="1" connectable="0">
          <mxGeometry x="-0.0734" relative="1" as="geometry">
            <mxPoint x="-10" y="12" as="offset" />
          </mxGeometry>
        </mxCell>
        <mxCell id="RmEavR5O3qaWNadBns78-13" value="FE POD" style="rounded=0;whiteSpace=wrap;html=1;fontFamily=Comic Sans MS;fillColor=#d5e8d4;strokeColor=#82b366;opacity=80;" parent="1" vertex="1">
          <mxGeometry x="1391" width="70" height="40" as="geometry" />
        </mxCell>
        <mxCell id="RmEavR5O3qaWNadBns78-14" value="FE POD" style="rounded=0;whiteSpace=wrap;html=1;fontFamily=Comic Sans MS;fillColor=#d5e8d4;strokeColor=#82b366;opacity=80;" parent="1" vertex="1">
          <mxGeometry x="1391" y="50" width="70" height="40" as="geometry" />
        </mxCell>
        <mxCell id="RmEavR5O3qaWNadBns78-15" value="FE POD" style="rounded=0;whiteSpace=wrap;html=1;fontFamily=Comic Sans MS;fillColor=#d5e8d4;strokeColor=#82b366;opacity=80;" parent="1" vertex="1">
          <mxGeometry x="1391" y="100" width="70" height="40" as="geometry" />
        </mxCell>
        <mxCell id="RmEavR5O3qaWNadBns78-23" style="rounded=0;orthogonalLoop=1;jettySize=auto;html=1;exitX=1;exitY=0.5;exitDx=0;exitDy=0;entryX=0;entryY=0.5;entryDx=0;entryDy=0;" parent="1" source="RmEavR5O3qaWNadBns78-19" target="RmEavR5O3qaWNadBns78-20" edge="1">
          <mxGeometry relative="1" as="geometry" />
        </mxCell>
        <mxCell id="RmEavR5O3qaWNadBns78-24" style="edgeStyle=none;rounded=0;orthogonalLoop=1;jettySize=auto;html=1;exitX=1;exitY=0.5;exitDx=0;exitDy=0;entryX=0;entryY=0.5;entryDx=0;entryDy=0;" parent="1" source="RmEavR5O3qaWNadBns78-19" target="RmEavR5O3qaWNadBns78-21" edge="1">
          <mxGeometry relative="1" as="geometry" />
        </mxCell>
        <mxCell id="RmEavR5O3qaWNadBns78-25" style="edgeStyle=none;rounded=0;orthogonalLoop=1;jettySize=auto;html=1;exitX=1;exitY=0.5;exitDx=0;exitDy=0;entryX=0;entryY=0.75;entryDx=0;entryDy=0;" parent="1" source="RmEavR5O3qaWNadBns78-19" target="RmEavR5O3qaWNadBns78-22" edge="1">
          <mxGeometry relative="1" as="geometry" />
        </mxCell>
        <mxCell id="RmEavR5O3qaWNadBns78-19" value="NGINX Service LB" style="rounded=0;whiteSpace=wrap;html=1;fontFamily=Comic Sans MS;fillColor=#fff2cc;strokeColor=#d6b656;" parent="1" vertex="1">
          <mxGeometry x="1218" y="265" width="120" height="60" as="geometry" />
        </mxCell>
        <mxCell id="RmEavR5O3qaWNadBns78-26" style="edgeStyle=none;rounded=0;orthogonalLoop=1;jettySize=auto;html=1;" parent="1" edge="1">
          <mxGeometry relative="1" as="geometry">
            <mxPoint x="1395" y="246" as="sourcePoint" />
            <mxPoint x="1240" y="100" as="targetPoint" />
          </mxGeometry>
        </mxCell>
        <mxCell id="1QH5dcmAh4hxBmZYu2zF-1" value="2. PUT /api/&amp;lt;db&amp;gt;/&amp;lt;table&amp;gt;/_stream_load" style="edgeLabel;html=1;align=center;verticalAlign=middle;resizable=0;points=[];rotation=43;fontSize=10;fontFamily=Helvetica;labelBackgroundColor=none;" parent="RmEavR5O3qaWNadBns78-26" vertex="1" connectable="0">
          <mxGeometry x="-0.0431" y="1" relative="1" as="geometry">
            <mxPoint x="-14" y="-2" as="offset" />
          </mxGeometry>
        </mxCell>
        <mxCell id="1QH5dcmAh4hxBmZYu2zF-3" style="edgeStyle=none;rounded=0;orthogonalLoop=1;jettySize=auto;html=1;exitX=1;exitY=0.5;exitDx=0;exitDy=0;entryX=0;entryY=0.5;entryDx=0;entryDy=0;fontFamily=Helvetica;fontSize=10;fontColor=#FF0000;" parent="1" source="RmEavR5O3qaWNadBns78-20" target="RmEavR5O3qaWNadBns78-7" edge="1">
          <mxGeometry relative="1" as="geometry" />
        </mxCell>
        <mxCell id="1QH5dcmAh4hxBmZYu2zF-4" value="6. PUT &lt;font color=&quot;#ff0000&quot; style=&quot;font-size: 10px;&quot;&gt;/api/&amp;lt;db&amp;gt;/&amp;lt;table&amp;gt;/_stream_load&lt;/font&gt;" style="edgeLabel;html=1;align=center;verticalAlign=middle;resizable=0;points=[];fontSize=10;fontFamily=Helvetica;fontColor=#000000;labelBackgroundColor=none;" parent="1QH5dcmAh4hxBmZYu2zF-3" vertex="1" connectable="0">
          <mxGeometry x="-0.1757" y="2" relative="1" as="geometry">
            <mxPoint x="15" y="-9" as="offset" />
          </mxGeometry>
        </mxCell>
        <mxCell id="RmEavR5O3qaWNadBns78-20" value="NGINX POD" style="rounded=0;whiteSpace=wrap;html=1;fontFamily=Comic Sans MS;fillColor=#ffcc99;strokeColor=#36393d;" parent="1" vertex="1">
          <mxGeometry x="1370" y="251" width="80" height="40" as="geometry" />
        </mxCell>
        <mxCell id="RmEavR5O3qaWNadBns78-21" value="NGINX POD" style="rounded=0;whiteSpace=wrap;html=1;fontFamily=Comic Sans MS;fillColor=#ffcc99;strokeColor=#36393d;" parent="1" vertex="1">
          <mxGeometry x="1370" y="330" width="80" height="40" as="geometry" />
        </mxCell>
        <mxCell id="RmEavR5O3qaWNadBns78-22" value="NGINX POD" style="rounded=0;whiteSpace=wrap;html=1;fontFamily=Comic Sans MS;fillColor=#ffcc99;strokeColor=#36393d;" parent="1" vertex="1">
          <mxGeometry x="1370" y="400" width="80" height="40" as="geometry" />
        </mxCell>
        <mxCell id="RmEavR5O3qaWNadBns78-28" style="rounded=0;orthogonalLoop=1;jettySize=auto;html=1;strokeColor=#0000FF;entryX=1;entryY=0;entryDx=0;entryDy=0;" parent="1" edge="1">
          <mxGeometry relative="1" as="geometry">
            <mxPoint x="1421" y="251" as="targetPoint" />
            <mxPoint x="1260" y="100" as="sourcePoint" />
          </mxGeometry>
        </mxCell>
        <mxCell id="1QH5dcmAh4hxBmZYu2zF-2" value="3. HTTP 307&lt;code style=&quot;border-color: var(--border-color); font-size: 10px; text-align: left; box-sizing: border-box; border-radius: var(--elem-radius); padding: 0.125rem 0.25rem; width: fit-content;&quot;&gt;Temporary Redirect&lt;/code&gt;&lt;br style=&quot;border-color: var(--border-color); font-size: 10px; text-align: left;&quot;&gt;&lt;span style=&quot;font-size: 10px;&quot;&gt;Location: http://BE-x:8040/api/&amp;lt;db&amp;gt;/&amp;lt;table&amp;gt;/_stream_load&lt;/span&gt;" style="edgeLabel;html=1;align=center;verticalAlign=middle;resizable=0;points=[];rotation=43;labelBackgroundColor=none;fontSize=10;fontFamily=Helvetica;" parent="RmEavR5O3qaWNadBns78-28" vertex="1" connectable="0">
          <mxGeometry x="-0.2248" y="1" relative="1" as="geometry">
            <mxPoint x="42" y="15" as="offset" />
          </mxGeometry>
        </mxCell>
        <mxCell id="RmEavR5O3qaWNadBns78-30" style="rounded=0;orthogonalLoop=1;jettySize=auto;html=1;" parent="1" edge="1">
          <mxGeometry relative="1" as="geometry">
            <mxPoint x="930" y="360" as="sourcePoint" />
            <mxPoint x="1220" y="330" as="targetPoint" />
          </mxGeometry>
        </mxCell>
        <mxCell id="RmEavR5O3qaWNadBns78-31" value="5. PUT /BE-X:8040/api/&amp;lt;db&amp;gt;/&amp;lt;table&amp;gt;/_stream_load" style="edgeLabel;html=1;align=center;verticalAlign=middle;resizable=0;points=[];labelBackgroundColor=none;fontFamily=Helvetica;fontSize=10;fontStyle=0;rotation=354;" parent="RmEavR5O3qaWNadBns78-30" vertex="1" connectable="0">
          <mxGeometry x="-0.0472" relative="1" as="geometry">
            <mxPoint x="-22" y="-7" as="offset" />
          </mxGeometry>
        </mxCell>
        <mxCell id="RmEavR5O3qaWNadBns78-32" style="rounded=0;orthogonalLoop=1;jettySize=auto;html=1;strokeColor=#0000FF;" parent="1" edge="1">
          <mxGeometry relative="1" as="geometry">
            <mxPoint x="930" y="370" as="targetPoint" />
            <mxPoint x="1220" y="340" as="sourcePoint" />
          </mxGeometry>
        </mxCell>
        <mxCell id="RmEavR5O3qaWNadBns78-33" value="8. HTTP OK" style="edgeLabel;html=1;align=center;verticalAlign=middle;resizable=0;points=[];fontSize=10;fontFamily=Helvetica;rotation=353;labelBackgroundColor=none;fontStyle=0" parent="RmEavR5O3qaWNadBns78-32" vertex="1" connectable="0">
          <mxGeometry x="-0.0734" relative="1" as="geometry">
            <mxPoint x="-9" y="8" as="offset" />
          </mxGeometry>
        </mxCell>
        <mxCell id="1QH5dcmAh4hxBmZYu2zF-5" value="7. HTTP OK" style="rounded=0;orthogonalLoop=1;jettySize=auto;html=1;strokeColor=#0000FF;exitX=0;exitY=0.75;exitDx=0;exitDy=0;entryX=1;entryY=0.75;entryDx=0;entryDy=0;labelBackgroundColor=none;fontFamily=Helvetica;fontSize=10;" parent="1" edge="1">
          <mxGeometry x="-0.0455" y="9" relative="1" as="geometry">
            <mxPoint x="1450" y="281" as="targetPoint" />
            <mxPoint x="1680" y="281" as="sourcePoint" />
            <mxPoint as="offset" />
          </mxGeometry>
        </mxCell>
      </root>
    </mxGraphModel>
  </diagram>
  <diagram id="eRs9QQKZ2aQMFP5033ee" name="transaction-stream-load">
    <mxGraphModel dx="1026" dy="569" grid="1" gridSize="10" guides="1" tooltips="1" connect="1" arrows="1" fold="1" page="1" pageScale="1" pageWidth="827" pageHeight="1169" math="0" shadow="0">
      <root>
        <mxCell id="0" />
        <mxCell id="1" parent="0" />
        <mxCell id="5yyrILi7ZTR9tosY3-uV-1" value=":User" style="shape=umlLifeline;perimeter=lifelinePerimeter;whiteSpace=wrap;html=1;container=1;dropTarget=0;collapsible=0;recursiveResize=0;outlineConnect=0;portConstraint=eastwest;newEdgeStyle={&quot;edgeStyle&quot;:&quot;elbowEdgeStyle&quot;,&quot;elbow&quot;:&quot;vertical&quot;,&quot;curved&quot;:0,&quot;rounded&quot;:0};fillColor=#fff2cc;strokeColor=#d6b656;strokeWidth=2;" parent="1" vertex="1">
          <mxGeometry x="72" y="150" width="100" height="580" as="geometry" />
        </mxCell>
        <mxCell id="5yyrILi7ZTR9tosY3-uV-5" value="" style="html=1;points=[];perimeter=orthogonalPerimeter;outlineConnect=0;targetShapes=umlLifeline;portConstraint=eastwest;newEdgeStyle={&quot;edgeStyle&quot;:&quot;elbowEdgeStyle&quot;,&quot;elbow&quot;:&quot;vertical&quot;,&quot;curved&quot;:0,&quot;rounded&quot;:0};" parent="5yyrILi7ZTR9tosY3-uV-1" vertex="1">
          <mxGeometry x="45" y="60" width="10" height="50" as="geometry" />
        </mxCell>
        <mxCell id="5yyrILi7ZTR9tosY3-uV-9" value="" style="html=1;points=[];perimeter=orthogonalPerimeter;outlineConnect=0;targetShapes=umlLifeline;portConstraint=eastwest;newEdgeStyle={&quot;edgeStyle&quot;:&quot;elbowEdgeStyle&quot;,&quot;elbow&quot;:&quot;vertical&quot;,&quot;curved&quot;:0,&quot;rounded&quot;:0};" parent="5yyrILi7ZTR9tosY3-uV-1" vertex="1">
          <mxGeometry x="45" y="131" width="10" height="59" as="geometry" />
        </mxCell>
        <mxCell id="5yyrILi7ZTR9tosY3-uV-41" value="" style="html=1;points=[];perimeter=orthogonalPerimeter;outlineConnect=0;targetShapes=umlLifeline;portConstraint=eastwest;newEdgeStyle={&quot;edgeStyle&quot;:&quot;elbowEdgeStyle&quot;,&quot;elbow&quot;:&quot;vertical&quot;,&quot;curved&quot;:0,&quot;rounded&quot;:0};" parent="5yyrILi7ZTR9tosY3-uV-1" vertex="1">
          <mxGeometry x="45" y="340" width="10" height="57" as="geometry" />
        </mxCell>
        <mxCell id="5yyrILi7ZTR9tosY3-uV-2" value=":FE" style="shape=umlLifeline;perimeter=lifelinePerimeter;whiteSpace=wrap;html=1;container=1;dropTarget=0;collapsible=0;recursiveResize=0;outlineConnect=0;portConstraint=eastwest;newEdgeStyle={&quot;edgeStyle&quot;:&quot;elbowEdgeStyle&quot;,&quot;elbow&quot;:&quot;vertical&quot;,&quot;curved&quot;:0,&quot;rounded&quot;:0};fillColor=#d5e8d4;strokeColor=#82b366;strokeWidth=2;" parent="1" vertex="1">
          <mxGeometry x="357" y="150" width="100" height="580" as="geometry" />
        </mxCell>
        <mxCell id="5yyrILi7ZTR9tosY3-uV-6" value="" style="html=1;points=[];perimeter=orthogonalPerimeter;outlineConnect=0;targetShapes=umlLifeline;portConstraint=eastwest;newEdgeStyle={&quot;edgeStyle&quot;:&quot;elbowEdgeStyle&quot;,&quot;elbow&quot;:&quot;vertical&quot;,&quot;curved&quot;:0,&quot;rounded&quot;:0};" parent="5yyrILi7ZTR9tosY3-uV-2" vertex="1">
          <mxGeometry x="43" y="60" width="10" height="50" as="geometry" />
        </mxCell>
        <mxCell id="5yyrILi7ZTR9tosY3-uV-10" value="" style="html=1;points=[];perimeter=orthogonalPerimeter;outlineConnect=0;targetShapes=umlLifeline;portConstraint=eastwest;newEdgeStyle={&quot;edgeStyle&quot;:&quot;elbowEdgeStyle&quot;,&quot;elbow&quot;:&quot;vertical&quot;,&quot;curved&quot;:0,&quot;rounded&quot;:0};" parent="5yyrILi7ZTR9tosY3-uV-2" vertex="1">
          <mxGeometry x="43" y="131" width="10" height="59" as="geometry" />
        </mxCell>
        <mxCell id="5yyrILi7ZTR9tosY3-uV-13" value="" style="html=1;points=[];perimeter=orthogonalPerimeter;outlineConnect=0;targetShapes=umlLifeline;portConstraint=eastwest;newEdgeStyle={&quot;edgeStyle&quot;:&quot;elbowEdgeStyle&quot;,&quot;elbow&quot;:&quot;vertical&quot;,&quot;curved&quot;:0,&quot;rounded&quot;:0};" parent="5yyrILi7ZTR9tosY3-uV-2" vertex="1">
          <mxGeometry x="-240" y="203" width="10" height="57" as="geometry" />
        </mxCell>
        <mxCell id="5yyrILi7ZTR9tosY3-uV-37" value="" style="html=1;points=[];perimeter=orthogonalPerimeter;outlineConnect=0;targetShapes=umlLifeline;portConstraint=eastwest;newEdgeStyle={&quot;edgeStyle&quot;:&quot;elbowEdgeStyle&quot;,&quot;elbow&quot;:&quot;vertical&quot;,&quot;curved&quot;:0,&quot;rounded&quot;:0};" parent="5yyrILi7ZTR9tosY3-uV-2" vertex="1">
          <mxGeometry x="-239" y="273" width="10" height="59" as="geometry" />
        </mxCell>
        <mxCell id="5yyrILi7ZTR9tosY3-uV-38" value="" style="html=1;points=[];perimeter=orthogonalPerimeter;outlineConnect=0;targetShapes=umlLifeline;portConstraint=eastwest;newEdgeStyle={&quot;edgeStyle&quot;:&quot;elbowEdgeStyle&quot;,&quot;elbow&quot;:&quot;vertical&quot;,&quot;curved&quot;:0,&quot;rounded&quot;:0};" parent="5yyrILi7ZTR9tosY3-uV-2" vertex="1">
          <mxGeometry x="44" y="273" width="10" height="59" as="geometry" />
        </mxCell>
        <mxCell id="5yyrILi7ZTR9tosY3-uV-39" value="PUT /api/transaction/load" style="html=1;verticalAlign=bottom;endArrow=block;edgeStyle=elbowEdgeStyle;elbow=vertical;curved=0;rounded=0;labelBackgroundColor=none;fontFamily=monospace;fontSize=10;" parent="5yyrILi7ZTR9tosY3-uV-2" edge="1">
          <mxGeometry relative="1" as="geometry">
            <mxPoint x="-229.0000000000001" y="286.5" as="sourcePoint" />
            <mxPoint x="44" y="286.33333333333337" as="targetPoint" />
          </mxGeometry>
        </mxCell>
        <mxCell id="5yyrILi7ZTR9tosY3-uV-40" value="HTTP 307&lt;br style=&quot;font-size: 10px;&quot;&gt;Location: http://be-2/api/transaction/load" style="html=1;verticalAlign=bottom;endArrow=open;dashed=1;endSize=8;edgeStyle=elbowEdgeStyle;elbow=vertical;curved=0;rounded=0;labelBackgroundColor=none;fontFamily=monospace;fontSize=10;align=left;" parent="5yyrILi7ZTR9tosY3-uV-2" source="5yyrILi7ZTR9tosY3-uV-38" target="5yyrILi7ZTR9tosY3-uV-37" edge="1">
          <mxGeometry x="0.9049" relative="1" as="geometry">
            <mxPoint x="-229.0000000000001" y="321.625" as="targetPoint" />
            <mxPoint x="54" y="322" as="sourcePoint" />
            <Array as="points">
              <mxPoint x="-86" y="322" />
            </Array>
            <mxPoint as="offset" />
          </mxGeometry>
        </mxCell>
        <mxCell id="5yyrILi7ZTR9tosY3-uV-29" value="" style="html=1;points=[];perimeter=orthogonalPerimeter;outlineConnect=0;targetShapes=umlLifeline;portConstraint=eastwest;newEdgeStyle={&quot;edgeStyle&quot;:&quot;elbowEdgeStyle&quot;,&quot;elbow&quot;:&quot;vertical&quot;,&quot;curved&quot;:0,&quot;rounded&quot;:0};" parent="5yyrILi7ZTR9tosY3-uV-2" vertex="1">
          <mxGeometry x="-240" y="410" width="10" height="60" as="geometry" />
        </mxCell>
        <mxCell id="5yyrILi7ZTR9tosY3-uV-30" value="" style="html=1;points=[];perimeter=orthogonalPerimeter;outlineConnect=0;targetShapes=umlLifeline;portConstraint=eastwest;newEdgeStyle={&quot;edgeStyle&quot;:&quot;elbowEdgeStyle&quot;,&quot;elbow&quot;:&quot;vertical&quot;,&quot;curved&quot;:0,&quot;rounded&quot;:0};" parent="5yyrILi7ZTR9tosY3-uV-2" vertex="1">
          <mxGeometry x="-240" y="490" width="10" height="60" as="geometry" />
        </mxCell>
        <mxCell id="5yyrILi7ZTR9tosY3-uV-31" value="" style="html=1;points=[];perimeter=orthogonalPerimeter;outlineConnect=0;targetShapes=umlLifeline;portConstraint=eastwest;newEdgeStyle={&quot;edgeStyle&quot;:&quot;elbowEdgeStyle&quot;,&quot;elbow&quot;:&quot;vertical&quot;,&quot;curved&quot;:0,&quot;rounded&quot;:0};" parent="5yyrILi7ZTR9tosY3-uV-2" vertex="1">
          <mxGeometry x="43" y="410" width="10" height="60" as="geometry" />
        </mxCell>
        <mxCell id="5yyrILi7ZTR9tosY3-uV-32" value="" style="html=1;points=[];perimeter=orthogonalPerimeter;outlineConnect=0;targetShapes=umlLifeline;portConstraint=eastwest;newEdgeStyle={&quot;edgeStyle&quot;:&quot;elbowEdgeStyle&quot;,&quot;elbow&quot;:&quot;vertical&quot;,&quot;curved&quot;:0,&quot;rounded&quot;:0};" parent="5yyrILi7ZTR9tosY3-uV-2" vertex="1">
          <mxGeometry x="43" y="490" width="10" height="60" as="geometry" />
        </mxCell>
        <mxCell id="5yyrILi7ZTR9tosY3-uV-33" value="PUT /api/transaction/prepare" style="html=1;verticalAlign=bottom;endArrow=block;edgeStyle=elbowEdgeStyle;elbow=vertical;curved=0;rounded=0;fontSize=10;labelBackgroundColor=none;fontFamily=monospace;" parent="5yyrILi7ZTR9tosY3-uV-2" source="5yyrILi7ZTR9tosY3-uV-29" target="5yyrILi7ZTR9tosY3-uV-31" edge="1">
          <mxGeometry x="-0.0005" relative="1" as="geometry">
            <mxPoint x="-27" y="410" as="sourcePoint" />
            <Array as="points">
              <mxPoint x="-29" y="420" />
            </Array>
            <mxPoint as="offset" />
          </mxGeometry>
        </mxCell>
        <mxCell id="5yyrILi7ZTR9tosY3-uV-34" value="HTTP 200 OK" style="html=1;verticalAlign=bottom;endArrow=open;dashed=1;endSize=8;edgeStyle=elbowEdgeStyle;elbow=vertical;curved=0;rounded=0;fontSize=10;labelBackgroundColor=none;fontFamily=monospace;" parent="5yyrILi7ZTR9tosY3-uV-2" edge="1">
          <mxGeometry relative="1" as="geometry">
            <mxPoint x="-230" y="456.28571428571445" as="targetPoint" />
            <mxPoint x="43" y="456" as="sourcePoint" />
            <mxPoint as="offset" />
          </mxGeometry>
        </mxCell>
        <mxCell id="5yyrILi7ZTR9tosY3-uV-35" value="PUT /api/transaction/commit" style="html=1;verticalAlign=bottom;endArrow=block;edgeStyle=elbowEdgeStyle;elbow=vertical;curved=0;rounded=0;labelBackgroundColor=none;fontFamily=monospace;fontSize=10;" parent="5yyrILi7ZTR9tosY3-uV-2" source="5yyrILi7ZTR9tosY3-uV-30" edge="1">
          <mxGeometry relative="1" as="geometry">
            <mxPoint x="-102" y="505.33333333333337" as="sourcePoint" />
            <mxPoint x="43" y="505.33333333333337" as="targetPoint" />
          </mxGeometry>
        </mxCell>
        <mxCell id="5yyrILi7ZTR9tosY3-uV-3" value=":BE-1" style="shape=umlLifeline;perimeter=lifelinePerimeter;whiteSpace=wrap;html=1;container=1;dropTarget=0;collapsible=0;recursiveResize=0;outlineConnect=0;portConstraint=eastwest;newEdgeStyle={&quot;edgeStyle&quot;:&quot;elbowEdgeStyle&quot;,&quot;elbow&quot;:&quot;vertical&quot;,&quot;curved&quot;:0,&quot;rounded&quot;:0};fillColor=#dae8fc;strokeColor=#6c8ebf;strokeWidth=2;" parent="1" vertex="1">
          <mxGeometry x="490" y="150" width="100" height="580" as="geometry" />
        </mxCell>
        <mxCell id="5yyrILi7ZTR9tosY3-uV-14" value="" style="html=1;points=[];perimeter=orthogonalPerimeter;outlineConnect=0;targetShapes=umlLifeline;portConstraint=eastwest;newEdgeStyle={&quot;edgeStyle&quot;:&quot;elbowEdgeStyle&quot;,&quot;elbow&quot;:&quot;vertical&quot;,&quot;curved&quot;:0,&quot;rounded&quot;:0};" parent="5yyrILi7ZTR9tosY3-uV-3" vertex="1">
          <mxGeometry x="45" y="203" width="10" height="57" as="geometry" />
        </mxCell>
        <mxCell id="5yyrILi7ZTR9tosY3-uV-4" value=":BE2" style="shape=umlLifeline;perimeter=lifelinePerimeter;whiteSpace=wrap;html=1;container=1;dropTarget=0;collapsible=0;recursiveResize=0;outlineConnect=0;portConstraint=eastwest;newEdgeStyle={&quot;edgeStyle&quot;:&quot;elbowEdgeStyle&quot;,&quot;elbow&quot;:&quot;vertical&quot;,&quot;curved&quot;:0,&quot;rounded&quot;:0};fillColor=#dae8fc;strokeColor=#6c8ebf;strokeWidth=2;" parent="1" vertex="1">
          <mxGeometry x="630" y="150" width="100" height="580" as="geometry" />
        </mxCell>
        <mxCell id="5yyrILi7ZTR9tosY3-uV-42" value="" style="html=1;points=[];perimeter=orthogonalPerimeter;outlineConnect=0;targetShapes=umlLifeline;portConstraint=eastwest;newEdgeStyle={&quot;edgeStyle&quot;:&quot;elbowEdgeStyle&quot;,&quot;elbow&quot;:&quot;vertical&quot;,&quot;curved&quot;:0,&quot;rounded&quot;:0};" parent="5yyrILi7ZTR9tosY3-uV-4" vertex="1">
          <mxGeometry x="45" y="340" width="10" height="57" as="geometry" />
        </mxCell>
        <mxCell id="5yyrILi7ZTR9tosY3-uV-7" value="PUT /api/transaction/begin" style="html=1;verticalAlign=bottom;endArrow=block;edgeStyle=elbowEdgeStyle;elbow=vertical;curved=0;rounded=0;fontSize=10;fontFamily=monospace;" parent="1" source="5yyrILi7ZTR9tosY3-uV-5" edge="1">
          <mxGeometry relative="1" as="geometry">
            <mxPoint x="195" y="222" as="sourcePoint" />
            <mxPoint x="400" y="222" as="targetPoint" />
            <Array as="points">
              <mxPoint x="328" y="222" />
            </Array>
          </mxGeometry>
        </mxCell>
        <mxCell id="5yyrILi7ZTR9tosY3-uV-8" value="HTTP 200 OK&lt;br style=&quot;font-size: 10px;&quot;&gt;Label: xxxx" style="html=1;verticalAlign=bottom;endArrow=open;dashed=1;endSize=8;elbow=vertical;rounded=0;fontSize=10;align=left;labelBackgroundColor=none;spacing=5;fontFamily=monospace;" parent="1" target="5yyrILi7ZTR9tosY3-uV-5" edge="1">
          <mxGeometry x="0.4634" y="7" relative="1" as="geometry">
            <mxPoint x="195" y="253" as="targetPoint" />
            <mxPoint x="400" y="253" as="sourcePoint" />
            <mxPoint as="offset" />
          </mxGeometry>
        </mxCell>
        <mxCell id="5yyrILi7ZTR9tosY3-uV-11" value="PUT /api/transaction/load" style="html=1;verticalAlign=bottom;endArrow=block;edgeStyle=elbowEdgeStyle;elbow=vertical;curved=0;rounded=0;labelBackgroundColor=none;fontFamily=monospace;fontSize=10;" parent="1" edge="1">
          <mxGeometry relative="1" as="geometry">
            <mxPoint x="126.99999999999989" y="294.5" as="sourcePoint" />
            <mxPoint x="400" y="294.33333333333337" as="targetPoint" />
          </mxGeometry>
        </mxCell>
        <mxCell id="5yyrILi7ZTR9tosY3-uV-12" value="HTTP 307&lt;br style=&quot;font-size: 10px;&quot;&gt;Location: http://be-1/api/transaction/load" style="html=1;verticalAlign=bottom;endArrow=open;dashed=1;endSize=8;edgeStyle=elbowEdgeStyle;elbow=vertical;curved=0;rounded=0;labelBackgroundColor=none;fontFamily=monospace;fontSize=10;align=left;" parent="1" source="5yyrILi7ZTR9tosY3-uV-10" target="5yyrILi7ZTR9tosY3-uV-9" edge="1">
          <mxGeometry x="0.9049" relative="1" as="geometry">
            <mxPoint x="126.99999999999989" y="329.625" as="targetPoint" />
            <mxPoint x="410" y="330" as="sourcePoint" />
            <Array as="points">
              <mxPoint x="270" y="330" />
            </Array>
            <mxPoint as="offset" />
          </mxGeometry>
        </mxCell>
        <mxCell id="5yyrILi7ZTR9tosY3-uV-15" value="PUT /api/transaction/load" style="html=1;verticalAlign=bottom;endArrow=block;edgeStyle=elbowEdgeStyle;elbow=vertical;curved=0;rounded=0;labelBackgroundColor=none;fontFamily=monospace;fontSize=10;" parent="1" source="5yyrILi7ZTR9tosY3-uV-13" target="5yyrILi7ZTR9tosY3-uV-14" edge="1">
          <mxGeometry x="-0.4461" relative="1" as="geometry">
            <mxPoint x="255" y="368.33333333333337" as="sourcePoint" />
            <mxPoint x="562.5" y="393.25" as="targetPoint" />
            <Array as="points">
              <mxPoint x="340" y="370" />
            </Array>
            <mxPoint as="offset" />
          </mxGeometry>
        </mxCell>
        <mxCell id="5yyrILi7ZTR9tosY3-uV-16" value="HTPP 200 OK" style="html=1;verticalAlign=bottom;endArrow=open;dashed=1;endSize=8;edgeStyle=elbowEdgeStyle;elbow=vertical;curved=0;rounded=0;labelBackgroundColor=none;fontFamily=monospace;fontSize=10;align=left;" parent="1" source="5yyrILi7ZTR9tosY3-uV-14" target="5yyrILi7ZTR9tosY3-uV-13" edge="1">
          <mxGeometry x="0.7794" relative="1" as="geometry">
            <mxPoint x="118.00499999999988" y="400" as="targetPoint" />
            <mxPoint x="554.13" y="400.1111111111111" as="sourcePoint" />
            <Array as="points">
              <mxPoint x="206.13" y="400" />
            </Array>
            <mxPoint as="offset" />
          </mxGeometry>
        </mxCell>
        <mxCell id="5yyrILi7ZTR9tosY3-uV-43" value="PUT /api/transaction/load" style="html=1;verticalAlign=bottom;endArrow=block;edgeStyle=elbowEdgeStyle;elbow=vertical;curved=0;rounded=0;labelBackgroundColor=none;fontFamily=monospace;fontSize=10;" parent="1" source="5yyrILi7ZTR9tosY3-uV-41" target="5yyrILi7ZTR9tosY3-uV-42" edge="1">
          <mxGeometry x="-0.6156" relative="1" as="geometry">
            <mxPoint x="255" y="505.33333333333337" as="sourcePoint" />
            <mxPoint x="562.5" y="530.25" as="targetPoint" />
            <Array as="points">
              <mxPoint x="340" y="507" />
            </Array>
            <mxPoint as="offset" />
          </mxGeometry>
        </mxCell>
        <mxCell id="5yyrILi7ZTR9tosY3-uV-44" value="HTTP 200 OK" style="html=1;verticalAlign=bottom;endArrow=open;dashed=1;endSize=8;edgeStyle=elbowEdgeStyle;elbow=vertical;curved=0;rounded=0;labelBackgroundColor=none;fontFamily=monospace;fontSize=10;align=left;" parent="1" source="5yyrILi7ZTR9tosY3-uV-42" target="5yyrILi7ZTR9tosY3-uV-41" edge="1">
          <mxGeometry x="0.8197" relative="1" as="geometry">
            <mxPoint x="118.00499999999988" y="537" as="targetPoint" />
            <mxPoint x="554.13" y="537.1111111111111" as="sourcePoint" />
            <Array as="points">
              <mxPoint x="206.13" y="537" />
            </Array>
            <mxPoint as="offset" />
          </mxGeometry>
        </mxCell>
        <mxCell id="5yyrILi7ZTR9tosY3-uV-36" value="HTTP 200 OK" style="html=1;verticalAlign=bottom;endArrow=open;dashed=1;endSize=8;edgeStyle=elbowEdgeStyle;elbow=vertical;curved=0;rounded=0;labelBackgroundColor=none;fontFamily=monospace;fontSize=10;" parent="1" edge="1">
          <mxGeometry relative="1" as="geometry">
            <mxPoint x="127" y="680.0028571428571" as="targetPoint" />
            <mxPoint x="400" y="680.1933333333334" as="sourcePoint" />
          </mxGeometry>
        </mxCell>
        <mxCell id="5yyrILi7ZTR9tosY3-uV-45" value="&amp;nbsp;Transaction Begin" style="shape=curlyBracket;whiteSpace=wrap;html=1;rounded=1;flipH=1;labelPosition=right;verticalLabelPosition=middle;align=left;verticalAlign=middle;" parent="1" vertex="1">
          <mxGeometry x="760" y="200" width="20" height="60" as="geometry" />
        </mxCell>
        <mxCell id="5yyrILi7ZTR9tosY3-uV-46" value="Load Data" style="shape=curlyBracket;whiteSpace=wrap;html=1;rounded=1;flipH=1;labelPosition=right;verticalLabelPosition=middle;align=left;verticalAlign=middle;" parent="1" vertex="1">
          <mxGeometry x="760" y="280" width="20" height="130" as="geometry" />
        </mxCell>
        <mxCell id="5yyrILi7ZTR9tosY3-uV-47" value="Load Data" style="shape=curlyBracket;whiteSpace=wrap;html=1;rounded=1;flipH=1;labelPosition=right;verticalLabelPosition=middle;align=left;verticalAlign=middle;" parent="1" vertex="1">
          <mxGeometry x="760" y="420" width="20" height="130" as="geometry" />
        </mxCell>
        <mxCell id="5yyrILi7ZTR9tosY3-uV-48" value="Transaction Prepare" style="shape=curlyBracket;whiteSpace=wrap;html=1;rounded=1;flipH=1;labelPosition=right;verticalLabelPosition=middle;align=left;verticalAlign=middle;" parent="1" vertex="1">
          <mxGeometry x="760" y="560" width="20" height="60" as="geometry" />
        </mxCell>
        <mxCell id="5yyrILi7ZTR9tosY3-uV-49" value="Transaction Commit" style="shape=curlyBracket;whiteSpace=wrap;html=1;rounded=1;flipH=1;labelPosition=right;verticalLabelPosition=middle;align=left;verticalAlign=middle;" parent="1" vertex="1">
          <mxGeometry x="760" y="630" width="20" height="60" as="geometry" />
        </mxCell>
      </root>
    </mxGraphModel>
  </diagram>
  <diagram id="GpotIE56T47FpH274fxg" name="issue">
    <mxGraphModel dx="1026" dy="569" grid="1" gridSize="10" guides="1" tooltips="1" connect="1" arrows="1" fold="1" page="1" pageScale="1" pageWidth="827" pageHeight="1169" math="0" shadow="0">
      <root>
        <mxCell id="0" />
        <mxCell id="1" parent="0" />
        <mxCell id="5ynyNjpd7g9eXVjoie7M-1" value=":User" style="shape=umlLifeline;perimeter=lifelinePerimeter;whiteSpace=wrap;html=1;container=1;dropTarget=0;collapsible=0;recursiveResize=0;outlineConnect=0;portConstraint=eastwest;newEdgeStyle={&quot;edgeStyle&quot;:&quot;elbowEdgeStyle&quot;,&quot;elbow&quot;:&quot;vertical&quot;,&quot;curved&quot;:0,&quot;rounded&quot;:0};fillColor=#fff2cc;strokeColor=#d6b656;strokeWidth=2;" parent="1" vertex="1">
          <mxGeometry x="72" y="150" width="100" height="290" as="geometry" />
        </mxCell>
        <mxCell id="5ynyNjpd7g9eXVjoie7M-2" value="" style="html=1;points=[];perimeter=orthogonalPerimeter;outlineConnect=0;targetShapes=umlLifeline;portConstraint=eastwest;newEdgeStyle={&quot;edgeStyle&quot;:&quot;elbowEdgeStyle&quot;,&quot;elbow&quot;:&quot;vertical&quot;,&quot;curved&quot;:0,&quot;rounded&quot;:0};" parent="5ynyNjpd7g9eXVjoie7M-1" vertex="1">
          <mxGeometry x="45" y="60" width="10" height="50" as="geometry" />
        </mxCell>
        <mxCell id="5ynyNjpd7g9eXVjoie7M-3" value="" style="html=1;points=[];perimeter=orthogonalPerimeter;outlineConnect=0;targetShapes=umlLifeline;portConstraint=eastwest;newEdgeStyle={&quot;edgeStyle&quot;:&quot;elbowEdgeStyle&quot;,&quot;elbow&quot;:&quot;vertical&quot;,&quot;curved&quot;:0,&quot;rounded&quot;:0};" parent="5ynyNjpd7g9eXVjoie7M-1" vertex="1">
          <mxGeometry x="45" y="131" width="10" height="59" as="geometry" />
        </mxCell>
        <mxCell id="5ynyNjpd7g9eXVjoie7M-5" value=":FE" style="shape=umlLifeline;perimeter=lifelinePerimeter;whiteSpace=wrap;html=1;container=1;dropTarget=0;collapsible=0;recursiveResize=0;outlineConnect=0;portConstraint=eastwest;newEdgeStyle={&quot;edgeStyle&quot;:&quot;elbowEdgeStyle&quot;,&quot;elbow&quot;:&quot;vertical&quot;,&quot;curved&quot;:0,&quot;rounded&quot;:0};fillColor=#d5e8d4;strokeColor=#82b366;strokeWidth=2;" parent="1" vertex="1">
          <mxGeometry x="357" y="150" width="100" height="290" as="geometry" />
        </mxCell>
        <mxCell id="5ynyNjpd7g9eXVjoie7M-6" value="" style="html=1;points=[];perimeter=orthogonalPerimeter;outlineConnect=0;targetShapes=umlLifeline;portConstraint=eastwest;newEdgeStyle={&quot;edgeStyle&quot;:&quot;elbowEdgeStyle&quot;,&quot;elbow&quot;:&quot;vertical&quot;,&quot;curved&quot;:0,&quot;rounded&quot;:0};" parent="5ynyNjpd7g9eXVjoie7M-5" vertex="1">
          <mxGeometry x="43" y="60" width="10" height="50" as="geometry" />
        </mxCell>
        <mxCell id="5ynyNjpd7g9eXVjoie7M-7" value="" style="html=1;points=[];perimeter=orthogonalPerimeter;outlineConnect=0;targetShapes=umlLifeline;portConstraint=eastwest;newEdgeStyle={&quot;edgeStyle&quot;:&quot;elbowEdgeStyle&quot;,&quot;elbow&quot;:&quot;vertical&quot;,&quot;curved&quot;:0,&quot;rounded&quot;:0};" parent="5ynyNjpd7g9eXVjoie7M-5" vertex="1">
          <mxGeometry x="43" y="131" width="10" height="59" as="geometry" />
        </mxCell>
        <mxCell id="5ynyNjpd7g9eXVjoie7M-8" value="" style="html=1;points=[];perimeter=orthogonalPerimeter;outlineConnect=0;targetShapes=umlLifeline;portConstraint=eastwest;newEdgeStyle={&quot;edgeStyle&quot;:&quot;elbowEdgeStyle&quot;,&quot;elbow&quot;:&quot;vertical&quot;,&quot;curved&quot;:0,&quot;rounded&quot;:0};" parent="5ynyNjpd7g9eXVjoie7M-5" vertex="1">
          <mxGeometry x="-240" y="203" width="10" height="57" as="geometry" />
        </mxCell>
        <mxCell id="5ynyNjpd7g9eXVjoie7M-20" value=":BE-1" style="shape=umlLifeline;perimeter=lifelinePerimeter;whiteSpace=wrap;html=1;container=1;dropTarget=0;collapsible=0;recursiveResize=0;outlineConnect=0;portConstraint=eastwest;newEdgeStyle={&quot;edgeStyle&quot;:&quot;elbowEdgeStyle&quot;,&quot;elbow&quot;:&quot;vertical&quot;,&quot;curved&quot;:0,&quot;rounded&quot;:0};fillColor=#dae8fc;strokeColor=#6c8ebf;strokeWidth=2;" parent="1" vertex="1">
          <mxGeometry x="490" y="150" width="100" height="290" as="geometry" />
        </mxCell>
        <mxCell id="5ynyNjpd7g9eXVjoie7M-21" value="" style="html=1;points=[];perimeter=orthogonalPerimeter;outlineConnect=0;targetShapes=umlLifeline;portConstraint=eastwest;newEdgeStyle={&quot;edgeStyle&quot;:&quot;elbowEdgeStyle&quot;,&quot;elbow&quot;:&quot;vertical&quot;,&quot;curved&quot;:0,&quot;rounded&quot;:0};" parent="5ynyNjpd7g9eXVjoie7M-20" vertex="1">
          <mxGeometry x="45" y="203" width="10" height="57" as="geometry" />
        </mxCell>
        <mxCell id="5ynyNjpd7g9eXVjoie7M-22" value=":BE2" style="shape=umlLifeline;perimeter=lifelinePerimeter;whiteSpace=wrap;html=1;container=1;dropTarget=0;collapsible=0;recursiveResize=0;outlineConnect=0;portConstraint=eastwest;newEdgeStyle={&quot;edgeStyle&quot;:&quot;elbowEdgeStyle&quot;,&quot;elbow&quot;:&quot;vertical&quot;,&quot;curved&quot;:0,&quot;rounded&quot;:0};fillColor=#dae8fc;strokeColor=#6c8ebf;strokeWidth=2;" parent="1" vertex="1">
          <mxGeometry x="630" y="150" width="100" height="290" as="geometry" />
        </mxCell>
        <mxCell id="5ynyNjpd7g9eXVjoie7M-24" value="PUT /api/transaction/begin" style="html=1;verticalAlign=bottom;endArrow=block;edgeStyle=elbowEdgeStyle;elbow=vertical;curved=0;rounded=0;fontSize=10;fontFamily=monospace;" parent="1" source="5ynyNjpd7g9eXVjoie7M-2" edge="1">
          <mxGeometry relative="1" as="geometry">
            <mxPoint x="195" y="222" as="sourcePoint" />
            <mxPoint x="400" y="222" as="targetPoint" />
            <Array as="points">
              <mxPoint x="328" y="222" />
            </Array>
          </mxGeometry>
        </mxCell>
        <mxCell id="5ynyNjpd7g9eXVjoie7M-25" value="HTTP 200 OK&lt;br style=&quot;font-size: 10px;&quot;&gt;Label: xxxx" style="html=1;verticalAlign=bottom;endArrow=open;dashed=1;endSize=8;elbow=vertical;rounded=0;fontSize=10;align=left;labelBackgroundColor=none;spacing=5;fontFamily=monospace;" parent="1" target="5ynyNjpd7g9eXVjoie7M-2" edge="1">
          <mxGeometry x="0.4634" y="7" relative="1" as="geometry">
            <mxPoint x="195" y="253" as="targetPoint" />
            <mxPoint x="400" y="253" as="sourcePoint" />
            <mxPoint as="offset" />
          </mxGeometry>
        </mxCell>
        <mxCell id="5ynyNjpd7g9eXVjoie7M-26" value="PUT /api/transaction/load" style="html=1;verticalAlign=bottom;endArrow=block;edgeStyle=elbowEdgeStyle;elbow=vertical;curved=0;rounded=0;labelBackgroundColor=none;fontFamily=monospace;fontSize=10;" parent="1" edge="1">
          <mxGeometry relative="1" as="geometry">
            <mxPoint x="126.99999999999989" y="294.5" as="sourcePoint" />
            <mxPoint x="400" y="294.33333333333337" as="targetPoint" />
          </mxGeometry>
        </mxCell>
        <mxCell id="5ynyNjpd7g9eXVjoie7M-27" value="HTTP 307&lt;br style=&quot;font-size: 10px;&quot;&gt;&lt;b&gt;&lt;font color=&quot;#ff0000&quot;&gt;Location: http://be-1/api/transaction/load&lt;/font&gt;&lt;/b&gt;" style="html=1;verticalAlign=bottom;endArrow=open;dashed=1;endSize=8;edgeStyle=elbowEdgeStyle;elbow=vertical;curved=0;rounded=0;labelBackgroundColor=none;fontFamily=monospace;fontSize=10;align=left;" parent="1" source="5ynyNjpd7g9eXVjoie7M-7" target="5ynyNjpd7g9eXVjoie7M-3" edge="1">
          <mxGeometry x="0.9049" relative="1" as="geometry">
            <mxPoint x="126.99999999999989" y="329.625" as="targetPoint" />
            <mxPoint x="410" y="330" as="sourcePoint" />
            <Array as="points">
              <mxPoint x="270" y="330" />
            </Array>
            <mxPoint as="offset" />
          </mxGeometry>
        </mxCell>
        <mxCell id="5ynyNjpd7g9eXVjoie7M-28" value="PUT /api/transaction/load" style="html=1;verticalAlign=bottom;endArrow=block;edgeStyle=elbowEdgeStyle;elbow=vertical;curved=0;rounded=0;labelBackgroundColor=none;fontFamily=monospace;fontSize=10;" parent="1" source="5ynyNjpd7g9eXVjoie7M-8" target="5ynyNjpd7g9eXVjoie7M-21" edge="1">
          <mxGeometry x="-0.4461" relative="1" as="geometry">
            <mxPoint x="255" y="368.33333333333337" as="sourcePoint" />
            <mxPoint x="562.5" y="393.25" as="targetPoint" />
            <Array as="points">
              <mxPoint x="340" y="370" />
            </Array>
            <mxPoint as="offset" />
          </mxGeometry>
        </mxCell>
        <mxCell id="5ynyNjpd7g9eXVjoie7M-33" value="&amp;nbsp;Transaction Begin" style="shape=curlyBracket;whiteSpace=wrap;html=1;rounded=1;flipH=1;labelPosition=right;verticalLabelPosition=middle;align=left;verticalAlign=middle;" parent="1" vertex="1">
          <mxGeometry x="760" y="200" width="20" height="60" as="geometry" />
        </mxCell>
        <mxCell id="5ynyNjpd7g9eXVjoie7M-34" value="Load Data" style="shape=curlyBracket;whiteSpace=wrap;html=1;rounded=1;flipH=1;labelPosition=right;verticalLabelPosition=middle;align=left;verticalAlign=middle;" parent="1" vertex="1">
          <mxGeometry x="760" y="280" width="20" height="130" as="geometry" />
        </mxCell>
        <mxCell id="5ynyNjpd7g9eXVjoie7M-41" value="" style="verticalLabelPosition=bottom;verticalAlign=top;html=1;shape=mxgraph.basic.no_symbol;strokeColor=#B20000;fillColor=#e51400;fontColor=#ffffff;" parent="1" vertex="1">
          <mxGeometry x="474" y="355" width="30" height="30" as="geometry" />
        </mxCell>
      </root>
    </mxGraphModel>
  </diagram>
  <diagram id="wKyEveuhG-ocdnCfZVOo" name="fe-proxy">
    <mxGraphModel dx="199" dy="1738" grid="1" gridSize="10" guides="1" tooltips="1" connect="1" arrows="1" fold="1" page="1" pageScale="1" pageWidth="827" pageHeight="1169" math="0" shadow="0">
      <root>
        <mxCell id="0" />
        <mxCell id="1" parent="0" />
        <mxCell id="SSDqpenBj0kkilPaI3cc-1" value="Kubernetes" style="rounded=0;whiteSpace=wrap;html=1;labelBackgroundColor=none;fontFamily=Verdana;fontSize=10;fillColor=#eeeeee;dashed=1;strokeColor=#36393d;labelPosition=center;verticalLabelPosition=bottom;align=center;verticalAlign=top;fontStyle=1" parent="1" vertex="1">
          <mxGeometry x="1230" y="-140" width="600" height="600" as="geometry" />
        </mxCell>
        <mxCell id="SSDqpenBj0kkilPaI3cc-2" value="User" style="shape=umlActor;verticalLabelPosition=bottom;verticalAlign=top;html=1;outlineConnect=0;fontFamily=Comic Sans MS;fillColor=#fff2cc;strokeColor=#d6b656;" parent="1" vertex="1">
          <mxGeometry x="890" y="250" width="50" height="95" as="geometry" />
        </mxCell>
        <mxCell id="SSDqpenBj0kkilPaI3cc-3" style="edgeStyle=none;rounded=0;orthogonalLoop=1;jettySize=auto;html=1;exitX=1;exitY=0.5;exitDx=0;exitDy=0;entryX=0;entryY=0.5;entryDx=0;entryDy=0;strokeColor=#000000;fontFamily=Lucida Console;fontSize=10;" parent="1" source="SSDqpenBj0kkilPaI3cc-6" target="SSDqpenBj0kkilPaI3cc-13" edge="1">
          <mxGeometry relative="1" as="geometry" />
        </mxCell>
        <mxCell id="SSDqpenBj0kkilPaI3cc-4" style="edgeStyle=none;rounded=0;orthogonalLoop=1;jettySize=auto;html=1;exitX=1;exitY=0.5;exitDx=0;exitDy=0;strokeColor=#000000;fontFamily=Lucida Console;fontSize=10;" parent="1" source="SSDqpenBj0kkilPaI3cc-6" target="SSDqpenBj0kkilPaI3cc-14" edge="1">
          <mxGeometry relative="1" as="geometry" />
        </mxCell>
        <mxCell id="SSDqpenBj0kkilPaI3cc-5" style="edgeStyle=none;rounded=0;orthogonalLoop=1;jettySize=auto;html=1;exitX=1;exitY=0.5;exitDx=0;exitDy=0;entryX=0;entryY=0.5;entryDx=0;entryDy=0;strokeColor=#000000;fontFamily=Lucida Console;fontSize=10;" parent="1" source="SSDqpenBj0kkilPaI3cc-6" target="SSDqpenBj0kkilPaI3cc-15" edge="1">
          <mxGeometry relative="1" as="geometry" />
        </mxCell>
        <mxCell id="SSDqpenBj0kkilPaI3cc-6" value="FE Service LB" style="rounded=0;whiteSpace=wrap;html=1;fontFamily=Comic Sans MS;fillColor=#fff2cc;strokeColor=#d6b656;" parent="1" vertex="1">
          <mxGeometry x="1218" y="-78" width="120" height="60" as="geometry" />
        </mxCell>
        <mxCell id="SSDqpenBj0kkilPaI3cc-7" value="BE-1 POD" style="rounded=0;whiteSpace=wrap;html=1;fontFamily=Comic Sans MS;fillColor=#dae8fc;strokeColor=#6c8ebf;" parent="1" vertex="1">
          <mxGeometry x="1750" y="251" width="70" height="40" as="geometry" />
        </mxCell>
        <mxCell id="SSDqpenBj0kkilPaI3cc-8" value="BE-2 POD" style="rounded=0;whiteSpace=wrap;html=1;fontFamily=Comic Sans MS;fillColor=#dae8fc;strokeColor=#6c8ebf;" parent="1" vertex="1">
          <mxGeometry x="1750" y="310" width="70" height="40" as="geometry" />
        </mxCell>
        <mxCell id="SSDqpenBj0kkilPaI3cc-9" style="rounded=0;orthogonalLoop=1;jettySize=auto;html=1;entryX=0;entryY=0.25;entryDx=0;entryDy=0;" parent="1" edge="1">
          <mxGeometry relative="1" as="geometry">
            <mxPoint x="960" y="288" as="sourcePoint" />
            <mxPoint x="1219" y="288" as="targetPoint" />
          </mxGeometry>
        </mxCell>
        <mxCell id="SSDqpenBj0kkilPaI3cc-10" value="1. PUT /api/{db}/{table}/_stream_load" style="edgeLabel;html=1;align=center;verticalAlign=middle;resizable=0;points=[];labelBackgroundColor=none;fontFamily=monospace;fontSize=10;fontStyle=0;rotation=0;" parent="SSDqpenBj0kkilPaI3cc-9" vertex="1" connectable="0">
          <mxGeometry x="-0.0472" relative="1" as="geometry">
            <mxPoint x="-22" y="-15" as="offset" />
          </mxGeometry>
        </mxCell>
        <mxCell id="SSDqpenBj0kkilPaI3cc-11" style="rounded=0;orthogonalLoop=1;jettySize=auto;html=1;exitX=0.003;exitY=0.667;exitDx=0;exitDy=0;strokeColor=#0000FF;exitPerimeter=0;" parent="1" edge="1">
          <mxGeometry relative="1" as="geometry">
            <mxPoint x="960" y="300" as="targetPoint" />
            <mxPoint x="1219" y="300.02" as="sourcePoint" />
          </mxGeometry>
        </mxCell>
        <mxCell id="SSDqpenBj0kkilPaI3cc-12" value="6. HTTP 200 OK" style="edgeLabel;html=1;align=center;verticalAlign=middle;resizable=0;points=[];fontSize=10;fontFamily=monospace;rotation=0;labelBackgroundColor=none;fontStyle=0" parent="SSDqpenBj0kkilPaI3cc-11" vertex="1" connectable="0">
          <mxGeometry x="-0.0734" relative="1" as="geometry">
            <mxPoint x="-16" y="12" as="offset" />
          </mxGeometry>
        </mxCell>
        <mxCell id="SSDqpenBj0kkilPaI3cc-13" value="FE POD" style="rounded=0;whiteSpace=wrap;html=1;fontFamily=Comic Sans MS;fillColor=#d5e8d4;strokeColor=#82b366;opacity=80;" parent="1" vertex="1">
          <mxGeometry x="1391" y="-113" width="70" height="40" as="geometry" />
        </mxCell>
        <mxCell id="SSDqpenBj0kkilPaI3cc-14" value="FE POD" style="rounded=0;whiteSpace=wrap;html=1;fontFamily=Comic Sans MS;fillColor=#d5e8d4;strokeColor=#82b366;opacity=80;" parent="1" vertex="1">
          <mxGeometry x="1391" y="-63" width="70" height="40" as="geometry" />
        </mxCell>
        <mxCell id="SSDqpenBj0kkilPaI3cc-15" value="FE POD" style="rounded=0;whiteSpace=wrap;html=1;fontFamily=Comic Sans MS;fillColor=#d5e8d4;strokeColor=#82b366;opacity=80;" parent="1" vertex="1">
          <mxGeometry x="1391" y="-13" width="70" height="40" as="geometry" />
        </mxCell>
        <mxCell id="SSDqpenBj0kkilPaI3cc-16" style="rounded=0;orthogonalLoop=1;jettySize=auto;html=1;exitX=1;exitY=0.5;exitDx=0;exitDy=0;entryX=0;entryY=0.5;entryDx=0;entryDy=0;" parent="1" source="SSDqpenBj0kkilPaI3cc-19" target="SSDqpenBj0kkilPaI3cc-24" edge="1">
          <mxGeometry relative="1" as="geometry" />
        </mxCell>
        <mxCell id="SSDqpenBj0kkilPaI3cc-17" style="edgeStyle=none;rounded=0;orthogonalLoop=1;jettySize=auto;html=1;exitX=1;exitY=0.5;exitDx=0;exitDy=0;entryX=0;entryY=0.5;entryDx=0;entryDy=0;" parent="1" source="SSDqpenBj0kkilPaI3cc-19" target="SSDqpenBj0kkilPaI3cc-25" edge="1">
          <mxGeometry relative="1" as="geometry" />
        </mxCell>
        <mxCell id="SSDqpenBj0kkilPaI3cc-18" style="edgeStyle=none;rounded=0;orthogonalLoop=1;jettySize=auto;html=1;exitX=1;exitY=0.5;exitDx=0;exitDy=0;entryX=0;entryY=0.75;entryDx=0;entryDy=0;" parent="1" source="SSDqpenBj0kkilPaI3cc-19" target="SSDqpenBj0kkilPaI3cc-26" edge="1">
          <mxGeometry relative="1" as="geometry" />
        </mxCell>
        <mxCell id="SSDqpenBj0kkilPaI3cc-19" value="fe-proxy&lt;br&gt;Service LB" style="rounded=0;whiteSpace=wrap;html=1;fontFamily=Comic Sans MS;fillColor=#fff2cc;strokeColor=#d6b656;" parent="1" vertex="1">
          <mxGeometry x="1218" y="265" width="120" height="60" as="geometry" />
        </mxCell>
        <mxCell id="SSDqpenBj0kkilPaI3cc-20" style="edgeStyle=none;rounded=0;orthogonalLoop=1;jettySize=auto;html=1;entryX=0.25;entryY=1;entryDx=0;entryDy=0;" parent="1" edge="1">
          <mxGeometry relative="1" as="geometry">
            <mxPoint x="1417" y="246" as="sourcePoint" />
            <mxPoint x="1270" y="-18" as="targetPoint" />
          </mxGeometry>
        </mxCell>
        <mxCell id="SSDqpenBj0kkilPaI3cc-21" value="2. PUT /api/&amp;lt;db&amp;gt;/&amp;lt;table&amp;gt;/_stream_load" style="edgeLabel;html=1;align=center;verticalAlign=middle;resizable=0;points=[];rotation=61;fontSize=10;fontFamily=monospace;labelBackgroundColor=none;" parent="SSDqpenBj0kkilPaI3cc-20" vertex="1" connectable="0">
          <mxGeometry x="-0.0431" y="1" relative="1" as="geometry">
            <mxPoint x="4" y="-20" as="offset" />
          </mxGeometry>
        </mxCell>
        <mxCell id="SSDqpenBj0kkilPaI3cc-22" style="edgeStyle=none;rounded=0;orthogonalLoop=1;jettySize=auto;html=1;exitX=1;exitY=0.5;exitDx=0;exitDy=0;entryX=0;entryY=0.5;entryDx=0;entryDy=0;fontFamily=Helvetica;fontSize=10;fontColor=#FF0000;" parent="1" source="SSDqpenBj0kkilPaI3cc-24" target="SSDqpenBj0kkilPaI3cc-7" edge="1">
          <mxGeometry relative="1" as="geometry" />
        </mxCell>
        <mxCell id="SSDqpenBj0kkilPaI3cc-23" value="4. PUT /api/{db}/{table}/_stream_load&amp;nbsp;" style="edgeLabel;html=1;align=center;verticalAlign=middle;resizable=0;points=[];fontSize=10;fontFamily=monospace;fontColor=#000000;labelBackgroundColor=none;" parent="SSDqpenBj0kkilPaI3cc-22" vertex="1" connectable="0">
          <mxGeometry x="-0.1757" y="2" relative="1" as="geometry">
            <mxPoint x="15" y="-9" as="offset" />
          </mxGeometry>
        </mxCell>
        <mxCell id="SSDqpenBj0kkilPaI3cc-24" value="NGINX POD" style="rounded=0;whiteSpace=wrap;html=1;fontFamily=Comic Sans MS;fillColor=#ffcc99;strokeColor=#36393d;" parent="1" vertex="1">
          <mxGeometry x="1370" y="251" width="80" height="40" as="geometry" />
        </mxCell>
        <mxCell id="SSDqpenBj0kkilPaI3cc-25" value="NGINX POD" style="rounded=0;whiteSpace=wrap;html=1;fontFamily=Comic Sans MS;fillColor=#ffcc99;strokeColor=#36393d;" parent="1" vertex="1">
          <mxGeometry x="1370" y="330" width="80" height="40" as="geometry" />
        </mxCell>
        <mxCell id="SSDqpenBj0kkilPaI3cc-26" value="NGINX POD" style="rounded=0;whiteSpace=wrap;html=1;fontFamily=Comic Sans MS;fillColor=#ffcc99;strokeColor=#36393d;" parent="1" vertex="1">
          <mxGeometry x="1370" y="400" width="80" height="40" as="geometry" />
        </mxCell>
        <mxCell id="SSDqpenBj0kkilPaI3cc-27" style="rounded=0;orthogonalLoop=1;jettySize=auto;html=1;strokeColor=#0000FF;entryX=1;entryY=0;entryDx=0;entryDy=0;exitX=0.5;exitY=1;exitDx=0;exitDy=0;" parent="1" edge="1">
          <mxGeometry relative="1" as="geometry">
            <mxPoint x="1384" y="251" as="targetPoint" />
            <mxPoint x="1241" y="-18" as="sourcePoint" />
          </mxGeometry>
        </mxCell>
        <mxCell id="SSDqpenBj0kkilPaI3cc-28" value="3. HTTP 307&lt;br style=&quot;border-color: var(--border-color); font-size: 10px; text-align: left;&quot;&gt;&lt;span style=&quot;font-size: 10px;&quot;&gt;Location: http://BE-x/api/{db}/{table}/_stream_load&lt;/span&gt;" style="edgeLabel;html=1;align=center;verticalAlign=middle;resizable=0;points=[];rotation=62;labelBackgroundColor=none;fontSize=10;fontFamily=monospace;" parent="SSDqpenBj0kkilPaI3cc-27" vertex="1" connectable="0">
          <mxGeometry x="-0.2248" y="1" relative="1" as="geometry">
            <mxPoint x="-7" y="32" as="offset" />
          </mxGeometry>
        </mxCell>
        <mxCell id="SSDqpenBj0kkilPaI3cc-33" value="5. HTTP 200 OK" style="rounded=0;orthogonalLoop=1;jettySize=auto;html=1;strokeColor=#0000FF;exitX=0;exitY=0.75;exitDx=0;exitDy=0;entryX=1;entryY=0.75;entryDx=0;entryDy=0;labelBackgroundColor=none;fontFamily=monospace;fontSize=10;" parent="1" source="SSDqpenBj0kkilPaI3cc-7" edge="1">
          <mxGeometry x="-0.0455" y="9" relative="1" as="geometry">
            <mxPoint x="1450" y="281" as="targetPoint" />
            <mxPoint x="1680" y="281" as="sourcePoint" />
            <mxPoint as="offset" />
          </mxGeometry>
        </mxCell>
      </root>
    </mxGraphModel>
  </diagram>
</mxfile>
